<?xml version="1.0" encoding="UTF-8" standalone="no"?>
<svg
   xmlns:dc="http://purl.org/dc/elements/1.1/"
   xmlns:cc="http://creativecommons.org/ns#"
   xmlns:rdf="http://www.w3.org/1999/02/22-rdf-syntax-ns#"
   xmlns:svg="http://www.w3.org/2000/svg"
   xmlns="http://www.w3.org/2000/svg"
   version="1.1"
   id="svg5313"
   viewBox="0 0 661.26914 364.2134"
   height="102.78912mm"
   width="186.62485mm">
  <defs
     id="defs5315" />
  <metadata
     id="metadata5318">
    <rdf:RDF>
      <cc:Work
         rdf:about="">
        <dc:format>image/svg+xml</dc:format>
        <dc:type
           rdf:resource="http://purl.org/dc/dcmitype/StillImage" />
        <dc:title></dc:title>
      </cc:Work>
    </rdf:RDF>
  </metadata>
  <g
     transform="translate(-57.133429,-277.04202)"
     id="layer1">
    <path
       transform="matrix(0.99982523,0.01869516,-0.149407,0.98877578,0,0)"
       d="M 659.86487,490.13932 A 229.87589,168.5856 0 0 1 373.4541,601.83367 229.87589,168.5856 0 0 1 219.91022,392.27375 229.87589,168.5856 0 0 1 504.98736,278.75924 229.87589,168.5856 0 0 1 661.00731,487.33322"
       id="path4428"
       style="fill:#44aa00;fill-opacity:1" />
    <path
       d="m 282.48698,358.87481 a 63.134533,61.619305 0 0 1 -78.66162,40.82512 63.134533,61.619305 0 0 1 -42.17024,-76.59572 63.134533,61.619305 0 0 1 78.29535,-41.49041 63.134533,61.619305 0 0 1 42.85028,76.23536"
       id="path4432"
       style="fill:#44aa00;fill-opacity:1" />
    <path
       d="m 261.18143,362.73095 a 42.426407,40.406101 0 0 1 -52.86061,26.77057 42.426407,40.406101 0 0 1 -28.3384,-50.2267 42.426407,40.406101 0 0 1 52.61448,-27.20683 42.426407,40.406101 0 0 1 28.79539,49.9904"
       id="path4436"
       style="fill:#ffffff;fill-opacity:1" />
    <path
       d="m 222.27517,348.57874 a 8.586297,6.0609155 0 0 1 -10.69798,4.01559 8.586297,6.0609155 0 0 1 -5.73515,-7.53401 8.586297,6.0609155 0 0 1 10.64817,-4.08102 8.586297,6.0609155 0 0 1 5.82763,7.49856"
       id="path4438"
       style="fill:#ffffff;fill-opacity:1" />
    <circle
       r="0"
       cy="0"
       cx="0"
       id="oko-left"
       style="fill:#000000;fill-opacity:1" />
    <path
       d="m 244.52094,365.98981 a 8.0812206,8.586297 0 0 1 -10.06869,5.68875 8.0812206,8.586297 0 0 1 -5.39779,-10.67318 8.0812206,8.586297 0 0 1 10.0218,-5.78145 8.0812206,8.586297 0 0 1 5.48484,10.62296"
       id="path4442"
       style="fill:#ffffff;fill-opacity:1" />
    <path
       d="m 595.12919,363.92556 a 63.134533,61.619305 0 0 1 -78.66162,40.82513 63.134533,61.619305 0 0 1 -42.17024,-76.59573 63.134533,61.619305 0 0 1 78.29535,-41.49041 63.134533,61.619305 0 0 1 42.85028,76.23536"
       id="path4432-8"
       style="fill:#44aa00;fill-opacity:1" />
    <path
       d="m 573.82368,367.78173 a 42.426407,40.406101 0 0 1 -52.86062,26.77057 42.426407,40.406101 0 0 1 -28.3384,-50.2267 42.426407,40.406101 0 0 1 52.61448,-27.20683 42.426407,40.406101 0 0 1 28.79539,49.9904"
       id="path4436-5"
       style="fill:#ffffff;fill-opacity:1" />
    <path
       d="m 534.91741,353.62952 a 8.586297,6.0609155 0 0 1 -10.69798,4.01559 8.586297,6.0609155 0 0 1 -5.73515,-7.53401 8.586297,6.0609155 0 0 1 10.64817,-4.08102 8.586297,6.0609155 0 0 1 5.82764,7.49856"
       id="path4438-6"
       style="fill:#ffffff;fill-opacity:1" />
    <path
       d="m 554.69658,370.42255 a 29.546965,28.789351 0 0 1 -36.81364,19.07403 29.546965,28.789351 0 0 1 -19.73568,-35.78653 29.546965,28.789351 0 0 1 36.64223,-19.38486 29.546965,28.789351 0 0 1 20.05394,35.61816"
       id="path4440-0"
       style="fill:#000000;fill-opacity:1" />
    <path
       d="m 534.64395,369.19361 a 8.0812206,8.586297 0 0 1 -10.06869,5.68875 8.0812206,8.586297 0 0 1 -5.39779,-10.67318 8.0812206,8.586297 0 0 1 10.02181,-5.78145 8.0812206,8.586297 0 0 1 5.48483,10.62296"
       id="path4442-7"
       style="fill:#ffffff;fill-opacity:1" />
    <path
       id="buzia"
       d="m 495.60484,559.67067 c -38.21408,17.26217 -94.52596,37.76393 -152.1375,24.22361 -57.61156,-13.54033 -101.57002,-71.6932 -81.119,-101.40208 20.45099,-29.70889 61.3142,4.91037 117.87462,22.55474 64.44193,20.10305 182.35873,-19.44201 162.40967,10.38223"
       style="fill:#008000;fill-opacity:1" />
    <path
       id="jezyk"
       d="m 420.41951,565.18631 c -3.225,-15.27605 12.18296,-33.34466 21.17438,-39.24164 13.75369,-9.02028 53.62927,8.34144 54.4554,16.2832 0.82614,7.94179 -13.22739,12.82269 -25.53346,17.83983 -12.30606,5.01713 -42.67021,27.75697 -49.97351,5.31722"
       style="color:#000000;clip-rule:nonzero;display:inline;overflow:visible;visibility:visible;opacity:1;isolation:auto;mix-blend-mode:normal;color-interpolation:sRGB;color-interpolation-filters:linearRGB;solid-color:#000000;solid-opacity:1;fill:#ff8080;fill-opacity:1;fill-rule:nonzero;stroke-width:0.9956888;stroke-linecap:butt;stroke-linejoin:miter;stroke-miterlimit:4;stroke-dasharray:none;stroke-dashoffset:0;stroke-opacity:1;color-rendering:auto;image-rendering:auto;shape-rendering:auto;text-rendering:auto;enable-background:accumulate" />
    <path
       id="lapa-left"
       d="m 175.11196,632.96564 c -8.3857,32.74917 -38.08213,-41.42914 -65.33891,-51.37567 -27.256778,-9.94654 -59.504661,43.10199 -51.355701,10.26642 8.14896,-32.83556 82.810791,-107.33465 110.138351,-97.67331 27.32756,9.66134 26.22093,63.00272 18.30933,95.92221"
       style="color:#000000;clip-rule:nonzero;display:inline;overflow:visible;visibility:visible;opacity:1;isolation:auto;mix-blend-mode:normal;color-interpolation:sRGB;color-interpolation-filters:linearRGB;solid-color:#000000;solid-opacity:1;fill:#44aa00;fill-opacity:1;fill-rule:nonzero;stroke-width:0.9956888;stroke-linecap:butt;stroke-linejoin:miter;stroke-miterlimit:4;stroke-dasharray:none;stroke-dashoffset:0;stroke-opacity:1;color-rendering:auto;image-rendering:auto;shape-rendering:auto;text-rendering:auto;enable-background:accumulate">
      <animate
         repeatCount="5"
         fill="freeze"
         dur="0.15s"
         begin="0s"
         to="m 179.11196,625.96564 c -8.3857,32.74917 -38.08213,-41.42914 -65.33891,-51.37567 -27.256778,-9.94654 -59.504661,43.10199 -51.355701,10.26642 8.14896,-32.83556 82.810791,-107.33465 110.138351,-97.67331 27.32756,9.66134 26.22093,63.00272 18.30933,95.92221"
         from="m 175.11196,632.96564 c -8.3857,32.74917 -38.08213,-41.42914 -65.33891,-51.37567 -27.256778,-9.94654 -59.504661,43.10199 -51.355701,10.26642 8.14896,-32.83556 82.810791,-107.33465 110.138351,-97.67331 27.32756,9.66134 26.22093,63.00272 18.30933,95.92221"
         attributeType="XML"
         attributeName="d"
         id="" />
    </path>
    <path
       id="lapa-right"
       d="m 579.73298,596.60866 c 9.85638,32.74917 44.76096,-41.42914 76.79803,-51.37567 32.03706,-9.94654 69.94057,43.10199 60.36245,10.26642 -9.57813,-32.83556 -97.33413,-107.33465 -129.45439,-97.67331 -32.12026,9.66134 -30.81955,63.00272 -21.52042,95.92221"
       style="color:#000000;clip-rule:nonzero;display:inline;overflow:visible;visibility:visible;opacity:1;isolation:auto;mix-blend-mode:normal;color-interpolation:sRGB;color-interpolation-filters:linearRGB;solid-color:#000000;solid-opacity:1;fill:#44aa00;fill-opacity:1;fill-rule:nonzero;stroke-width:0.9956888;stroke-linecap:butt;stroke-linejoin:miter;stroke-miterlimit:4;stroke-dasharray:none;stroke-dashoffset:0;stroke-opacity:1;color-rendering:auto;image-rendering:auto;shape-rendering:auto;text-rendering:auto;enable-background:accumulate">
      <animate
         repeatCount="5"
         fill="freeze"
         dur="0.15s"
         begin="0s"
         to="m 584.73298,592.60866 c 9.85638,32.74917 44.76096,-41.42914 76.79803,-51.37567 32.03706,-9.94654 69.94057,43.10199 60.36245,10.26642 -9.57813,-32.83556 -97.33413,-107.33465 -129.45439,-97.67331 -32.12026,9.66134 -30.81955,63.00272 -21.52042,95.92221"
         from="m 579.73298,596.60866 c 9.85638,32.74917 44.76096,-41.42914 76.79803,-51.37567 32.03706,-9.94654 69.94057,43.10199 60.36245,10.26642 -9.57813,-32.83556 -97.33413,-107.33465 -129.45439,-97.67331 -32.12026,9.66134 -30.81955,63.00272 -21.52042,95.92221"
         attributeType="XML"
         attributeName="d"
         id="" />
    </path>
    <path
       id="brew-right"
       d="m 573.94291,314.17797 c -1.87568,-6.48436 -9.99289,-20.23549 -25.51886,-18.52814 -12.8744,1.4158 -13.19458,3.57903 -18.83152,4.70585 -10.21255,2.04151 4.5992,8.15777 25.3553,18.56901 19.44722,9.75472 29.34411,12.14588 19.05174,-4.54456"
       style="color:#000000;clip-rule:nonzero;display:inline;overflow:visible;visibility:visible;opacity:1;isolation:auto;mix-blend-mode:normal;color-interpolation:sRGB;color-interpolation-filters:linearRGB;solid-color:#000000;solid-opacity:1;fill:#008000;fill-opacity:1;fill-rule:nonzero;stroke-width:0.9956888;stroke-linecap:butt;stroke-linejoin:miter;stroke-miterlimit:4;stroke-dasharray:none;stroke-dashoffset:0;stroke-opacity:1;color-rendering:auto;image-rendering:auto;shape-rendering:auto;text-rendering:auto;enable-background:accumulate" />
    <path
       id="brew-left"
       d="m 177.26397,312.0228 c 1.87568,-6.48436 9.99289,-20.23549 25.51886,-18.52814 12.8744,1.4158 13.19458,3.57903 18.83152,4.70585 10.21255,2.04151 -4.5992,8.15777 -25.3553,18.56901 -19.44722,9.75472 -29.34411,12.14588 -19.05174,-4.54456"
       style="color:#000000;clip-rule:nonzero;display:inline;overflow:visible;visibility:visible;opacity:1;isolation:auto;mix-blend-mode:normal;color-interpolation:sRGB;color-interpolation-filters:linearRGB;solid-color:#000000;solid-opacity:1;fill:#008000;fill-opacity:1;fill-rule:nonzero;stroke-width:0.9956888;stroke-linecap:butt;stroke-linejoin:miter;stroke-miterlimit:4;stroke-dasharray:none;stroke-dashoffset:0;stroke-opacity:1;color-rendering:auto;image-rendering:auto;shape-rendering:auto;text-rendering:auto;enable-background:accumulate" />
    <path
       d="m 259.74227,366.44626 a 32.072346,29.799503 0 0 1 -39.96011,19.74331 32.072346,29.799503 0 0 1 -21.42248,-37.0422 32.072346,29.799503 0 0 1 39.77404,-20.06504 32.072346,29.799503 0 0 1 21.76794,36.86792"
       id="path4440-0-1"
       style="fill:#000000;fill-opacity:1" />
    <path
       d="m 235.60123,366.07358 a 8.0812206,8.586297 0 0 1 -10.06869,5.68875 8.0812206,8.586297 0 0 1 -5.39779,-10.67318 8.0812206,8.586297 0 0 1 10.0218,-5.78145 8.0812206,8.586297 0 0 1 5.48484,10.62296"
       id="path4442-7-8"
       style="fill:#ffffff;fill-opacity:1" />
  </g>
</svg>
