<?xml version="1.0" encoding="UTF-8" standalone="no"?>
<!-- Created with Inkscape (http://www.inkscape.org/) -->

<svg
   xmlns:dc="http://purl.org/dc/elements/1.1/"
   xmlns:cc="http://creativecommons.org/ns#"
   xmlns:rdf="http://www.w3.org/1999/02/22-rdf-syntax-ns#"
   xmlns:svg="http://www.w3.org/2000/svg"
   xmlns="http://www.w3.org/2000/svg"
   xmlns:sodipodi="http://sodipodi.sourceforge.net/DTD/sodipodi-0.dtd"
   xmlns:inkscape="http://www.inkscape.org/namespaces/inkscape"
   width="186.62485mm"
   height="102.78912mm"
   viewBox="0 0 661.26914 364.2134"
   id="svg5313"
   version="1.1"
   inkscape:version="0.91 r13725"
   sodipodi:docname="happy.svg">
  <defs
     id="defs5315" />
  <sodipodi:namedview
     id="base"
     pagecolor="#ffffff"
     bordercolor="#666666"
     borderopacity="1.0"
     inkscape:pageopacity="0.0"
     inkscape:pageshadow="2"
     inkscape:zoom="0.7"
     inkscape:cx="936.90007"
     inkscape:cy="154.36405"
     inkscape:document-units="px"
     inkscape:current-layer="layer1"
     showgrid="false"
     inkscape:window-width="1920"
     inkscape:window-height="1027"
     inkscape:window-x="-8"
     inkscape:window-y="-8"
     inkscape:window-maximized="1"
     fit-margin-top="0"
     fit-margin-left="0"
     fit-margin-right="0"
     fit-margin-bottom="0" />
  <metadata
     id="metadata5318">
    <rdf:RDF>
      <cc:Work
         rdf:about="">
        <dc:format>image/svg+xml</dc:format>
        <dc:type
           rdf:resource="http://purl.org/dc/dcmitype/StillImage" />
        <dc:title></dc:title>
      </cc:Work>
    </rdf:RDF>
  </metadata>
  <g
     inkscape:label="Layer 1"
     inkscape:groupmode="layer"
     id="layer1"
     transform="translate(-57.133429,-277.04202)">
    <path
       style="fill:#44aa00;fill-opacity:1"
       id="path4428"
       sodipodi:type="arc"
       sodipodi:cx="440.17731"
       sodipodi:cy="440.50592"
       sodipodi:rx="229.87589"
       sodipodi:ry="168.5856"
       sodipodi:start="0.29883877"
       sodipodi:end="0.2814675"
       d="M 659.86487,490.13932 A 229.87589,168.5856 0 0 1 373.4541,601.83367 229.87589,168.5856 0 0 1 219.91022,392.27375 229.87589,168.5856 0 0 1 504.98736,278.75924 229.87589,168.5856 0 0 1 661.00731,487.33322"
       inkscape:transform-center-x="-0.89608332"
       inkscape:transform-center-y="-0.58780556"
       transform="matrix(0.99982523,0.01869516,-0.149407,0.98877578,0,0)"
       sodipodi:open="true" />
    <path
       style="fill:#44aa00;fill-opacity:1"
       id="path4432"
       sodipodi:type="arc"
       sodipodi:cx="222.15063"
       sodipodi:cy="340.73343"
       sodipodi:rx="63.134533"
       sodipodi:ry="61.619305"
       sodipodi:start="0.29883877"
       sodipodi:end="0.2814675"
       sodipodi:open="true"
       d="m 282.48698,358.87481 a 63.134533,61.619305 0 0 1 -78.66162,40.82512 63.134533,61.619305 0 0 1 -42.17024,-76.59572 63.134533,61.619305 0 0 1 78.29535,-41.49041 63.134533,61.619305 0 0 1 42.85028,76.23536" />
    <path
       style="fill:#ffffff;fill-opacity:1"
       id="path4436"
       sodipodi:type="arc"
       sodipodi:cx="220.63541"
       sodipodi:cy="350.83496"
       sodipodi:rx="42.426407"
       sodipodi:ry="40.406101"
       sodipodi:start="0.29883877"
       sodipodi:end="0.2814675"
       sodipodi:open="true"
       d="m 261.18143,362.73095 a 42.426407,40.406101 0 0 1 -52.86061,26.77057 42.426407,40.406101 0 0 1 -28.3384,-50.2267 42.426407,40.406101 0 0 1 52.61448,-27.20683 42.426407,40.406101 0 0 1 28.79539,49.9904" />
    <path
       style="fill:#ffffff;fill-opacity:1"
       id="path4438"
       sodipodi:type="arc"
       sodipodi:cx="214.06943"
       sodipodi:cy="346.79434"
       sodipodi:rx="8.586297"
       sodipodi:ry="6.0609155"
       sodipodi:start="0.29883877"
       sodipodi:end="0.2814675"
       sodipodi:open="true"
       d="m 222.27517,348.57874 a 8.586297,6.0609155 0 0 1 -10.69798,4.01559 8.586297,6.0609155 0 0 1 -5.73515,-7.53401 8.586297,6.0609155 0 0 1 10.64817,-4.08102 8.586297,6.0609155 0 0 1 5.82763,7.49856" />
    <circle
       style="fill:#000000;fill-opacity:1"
       id="oko-left"
       cx="0"
       cy="0"
       r="0" />
    <path
       style="fill:#ffffff;fill-opacity:1"
       id="path4442"
       sodipodi:type="arc"
       sodipodi:cx="236.79788"
       sodipodi:cy="363.46191"
       sodipodi:rx="8.0812206"
       sodipodi:ry="8.586297"
       sodipodi:start="0.29883877"
       sodipodi:end="0.2814675"
       sodipodi:open="true"
       d="m 244.52094,365.98981 a 8.0812206,8.586297 0 0 1 -10.06869,5.68875 8.0812206,8.586297 0 0 1 -5.39779,-10.67318 8.0812206,8.586297 0 0 1 10.0218,-5.78145 8.0812206,8.586297 0 0 1 5.48484,10.62296" />
    <path
       style="fill:#44aa00;fill-opacity:1"
       id="path4432-8"
       sodipodi:type="arc"
       sodipodi:cx="534.79285"
       sodipodi:cy="345.78418"
       sodipodi:rx="63.134533"
       sodipodi:ry="61.619305"
       sodipodi:start="0.29883877"
       sodipodi:end="0.2814675"
       sodipodi:open="true"
       d="m 595.12919,363.92556 a 63.134533,61.619305 0 0 1 -78.66162,40.82513 63.134533,61.619305 0 0 1 -42.17024,-76.59573 63.134533,61.619305 0 0 1 78.29535,-41.49041 63.134533,61.619305 0 0 1 42.85028,76.23536" />
    <path
       style="fill:#ffffff;fill-opacity:1"
       id="path4436-5"
       sodipodi:type="arc"
       sodipodi:cx="533.27765"
       sodipodi:cy="355.88574"
       sodipodi:rx="42.426407"
       sodipodi:ry="40.406101"
       sodipodi:start="0.29883877"
       sodipodi:end="0.2814675"
       sodipodi:open="true"
       d="m 573.82368,367.78173 a 42.426407,40.406101 0 0 1 -52.86062,26.77057 42.426407,40.406101 0 0 1 -28.3384,-50.2267 42.426407,40.406101 0 0 1 52.61448,-27.20683 42.426407,40.406101 0 0 1 28.79539,49.9904" />
    <path
       style="fill:#ffffff;fill-opacity:1"
       id="path4438-6"
       sodipodi:type="arc"
       sodipodi:cx="526.71167"
       sodipodi:cy="351.84512"
       sodipodi:rx="8.586297"
       sodipodi:ry="6.0609155"
       sodipodi:start="0.29883877"
       sodipodi:end="0.2814675"
       sodipodi:open="true"
       d="m 534.91741,353.62952 a 8.586297,6.0609155 0 0 1 -10.69798,4.01559 8.586297,6.0609155 0 0 1 -5.73515,-7.53401 8.586297,6.0609155 0 0 1 10.64817,-4.08102 8.586297,6.0609155 0 0 1 5.82764,7.49856" />
    <path
       style="fill:#000000;fill-opacity:1"
       id="path4440-0"
       sodipodi:type="arc"
       sodipodi:cx="533.02515"
       sodipodi:cy="355.38068"
       sodipodi:rx="36.112957"
       sodipodi:ry="35.355343"
       sodipodi:start="0.29883877"
       sodipodi:end="0.2814675"
       sodipodi:open="true"
       d="m 567.53754,365.78967 a 36.112957,35.355343 0 0 1 -44.99445,23.42425 36.112957,35.355343 0 0 1 -24.12138,-43.94837 36.112957,35.355343 0 0 1 44.78494,-23.80597 36.112957,35.355343 0 0 1 24.51037,43.7416" />
    <path
       style="fill:#ffffff;fill-opacity:1"
       id="path4442-7"
       sodipodi:type="arc"
       sodipodi:cx="526.9209"
       sodipodi:cy="367.67584"
       sodipodi:rx="8.0812206"
       sodipodi:ry="8.586297"
       sodipodi:start="0.29883877"
       sodipodi:end="0.2814675"
       sodipodi:open="true"
       d="m 534.64395,370.20374 a 8.0812206,8.586297 0 0 1 -10.06869,5.68875 8.0812206,8.586297 0 0 1 -5.39779,-10.67318 8.0812206,8.586297 0 0 1 10.02181,-5.78145 8.0812206,8.586297 0 0 1 5.48483,10.62296" />
    <path
       style="fill:#008000;fill-opacity:1"
       d="M 510.83081,544.89706 C 455.43776,571.0705 373.81115,602.15593 290.3006,581.62565 206.79003,561.09539 143.07026,472.9222 172.71493,427.87665 c 29.64464,-45.04554 88.87772,7.44526 170.86461,34.19822 93.41149,30.48085 264.33724,-29.4786 235.42018,15.74185"
       id="buzia"
       inkscape:connector-curvature="0"
       sodipodi:nodetypes="csssc" />
    <path
       style="color:#000000;clip-rule:nonzero;display:inline;overflow:visible;visibility:visible;opacity:1;isolation:auto;mix-blend-mode:normal;color-interpolation:sRGB;color-interpolation-filters:linearRGB;solid-color:#000000;solid-opacity:1;fill:#ff8080;fill-opacity:1;fill-rule:nonzero;stroke-width:0.9956888;stroke-linecap:butt;stroke-linejoin:miter;stroke-miterlimit:4;stroke-dasharray:none;stroke-dashoffset:0;stroke-opacity:1;color-rendering:auto;image-rendering:auto;shape-rendering:auto;text-rendering:auto;enable-background:accumulate"
       d="m 481.4339,541.34879 c -21.76473,27.45343 -107.42698,43.26173 -147.73669,44.98571 -61.65955,2.63707 -149.7948,-59.95485 -135.82858,-73.49014 13.96623,-13.53531 125.52832,11.92542 174.33761,14.49505 48.80927,2.56964 133.23153,-28.9697 109.25853,13.58235"
       id="jezyk"
       inkscape:connector-curvature="0"
       sodipodi:nodetypes="csssc" />
    <path
       style="color:#000000;clip-rule:nonzero;display:inline;overflow:visible;visibility:visible;opacity:1;isolation:auto;mix-blend-mode:normal;color-interpolation:sRGB;color-interpolation-filters:linearRGB;solid-color:#000000;solid-opacity:1;fill:#44aa00;fill-opacity:1;fill-rule:nonzero;stroke-width:0.9956888;stroke-linecap:butt;stroke-linejoin:miter;stroke-miterlimit:4;stroke-dasharray:none;stroke-dashoffset:0;stroke-opacity:1;color-rendering:auto;image-rendering:auto;shape-rendering:auto;text-rendering:auto;enable-background:accumulate"
       d="m 175.11196,632.96564 c -8.3857,32.74917 -38.08213,-41.42914 -65.33891,-51.37567 -27.256778,-9.94654 -59.504661,43.10199 -51.355701,10.26642 8.14896,-32.83556 82.810791,-107.33465 110.138351,-97.67331 27.32756,9.66134 26.22093,63.00272 18.30933,95.92221"
       id="lapa-left"
       inkscape:connector-curvature="0"
       sodipodi:nodetypes="csssc">
      <animate
         id=""
         attributeName="d"
         attributeType="XML"
         from="m 175.11196,632.96564 c -8.3857,32.74917 -38.08213,-41.42914 -65.33891,-51.37567 -27.256778,-9.94654 -59.504661,43.10199 -51.355701,10.26642 8.14896,-32.83556 82.810791,-107.33465 110.138351,-97.67331 27.32756,9.66134 26.22093,63.00272 18.30933,95.92221"
         to="m 179.11196,625.96564 c -8.3857,32.74917 -38.08213,-41.42914 -65.33891,-51.37567 -27.256778,-9.94654 -59.504661,43.10199 -51.355701,10.26642 8.14896,-32.83556 82.810791,-107.33465 110.138351,-97.67331 27.32756,9.66134 26.22093,63.00272 18.30933,95.92221"
         begin="0s"
         dur="0.15s"
         fill="freeze"
         repeatCount="5" />
    </path>
    <path
       style="color:#000000;clip-rule:nonzero;display:inline;overflow:visible;visibility:visible;opacity:1;isolation:auto;mix-blend-mode:normal;color-interpolation:sRGB;color-interpolation-filters:linearRGB;solid-color:#000000;solid-opacity:1;fill:#44aa00;fill-opacity:1;fill-rule:nonzero;stroke-width:0.9956888;stroke-linecap:butt;stroke-linejoin:miter;stroke-miterlimit:4;stroke-dasharray:none;stroke-dashoffset:0;stroke-opacity:1;color-rendering:auto;image-rendering:auto;shape-rendering:auto;text-rendering:auto;enable-background:accumulate"
       d="m 579.73298,596.60866 c 9.85638,32.74917 44.76096,-41.42914 76.79803,-51.37567 32.03706,-9.94654 69.94057,43.10199 60.36245,10.26642 -9.57813,-32.83556 -97.33413,-107.33465 -129.45439,-97.67331 -32.12026,9.66134 -30.81955,63.00272 -21.52042,95.92221"
       id="lapa-right"
       inkscape:connector-curvature="0"
       sodipodi:nodetypes="csssc">
      <animate
         id=""
         attributeName="d"
         attributeType="XML"
         from="m 579.73298,596.60866 c 9.85638,32.74917 44.76096,-41.42914 76.79803,-51.37567 32.03706,-9.94654 69.94057,43.10199 60.36245,10.26642 -9.57813,-32.83556 -97.33413,-107.33465 -129.45439,-97.67331 -32.12026,9.66134 -30.81955,63.00272 -21.52042,95.92221"
         to="m 584.73298,592.60866 c 9.85638,32.74917 44.76096,-41.42914 76.79803,-51.37567 32.03706,-9.94654 69.94057,43.10199 60.36245,10.26642 -9.57813,-32.83556 -97.33413,-107.33465 -129.45439,-97.67331 -32.12026,9.66134 -30.81955,63.00272 -21.52042,95.92221"
         begin="0s"
         dur="0.15s"
         fill="freeze"
         repeatCount="5" />
    </path>
    <path
       style="color:#000000;clip-rule:nonzero;display:inline;overflow:visible;visibility:visible;opacity:1;isolation:auto;mix-blend-mode:normal;color-interpolation:sRGB;color-interpolation-filters:linearRGB;solid-color:#000000;solid-opacity:1;fill:#008000;fill-opacity:1;fill-rule:nonzero;stroke-width:0.9956888;stroke-linecap:butt;stroke-linejoin:miter;stroke-miterlimit:4;stroke-dasharray:none;stroke-dashoffset:0;stroke-opacity:1;color-rendering:auto;image-rendering:auto;shape-rendering:auto;text-rendering:auto;enable-background:accumulate"
       d="m 573.94291,314.17797 c -1.87568,-6.48436 -9.99289,-20.23549 -25.51886,-18.52814 -12.8744,1.4158 -13.19458,3.57903 -18.83152,4.70585 -10.21255,2.04151 4.5992,8.15777 25.3553,18.56901 19.44722,9.75472 29.34411,12.14588 19.05174,-4.54456"
       id="brew-right"
       inkscape:connector-curvature="0"
       sodipodi:nodetypes="csssc"
       inkscape:transform-center-x="-19.617286"
       inkscape:transform-center-y="8.7675971" />
    <path
       style="color:#000000;clip-rule:nonzero;display:inline;overflow:visible;visibility:visible;opacity:1;isolation:auto;mix-blend-mode:normal;color-interpolation:sRGB;color-interpolation-filters:linearRGB;solid-color:#000000;solid-opacity:1;fill:#008000;fill-opacity:1;fill-rule:nonzero;stroke-width:0.9956888;stroke-linecap:butt;stroke-linejoin:miter;stroke-miterlimit:4;stroke-dasharray:none;stroke-dashoffset:0;stroke-opacity:1;color-rendering:auto;image-rendering:auto;shape-rendering:auto;text-rendering:auto;enable-background:accumulate"
       d="m 177.26397,312.0228 c 1.87568,-6.48436 9.99289,-20.23549 25.51886,-18.52814 12.8744,1.4158 13.19458,3.57903 18.83152,4.70585 10.21255,2.04151 -4.5992,8.15777 -25.3553,18.56901 -19.44722,9.75472 -29.34411,12.14588 -19.05174,-4.54456"
       id="brew-left"
       inkscape:connector-curvature="0"
       sodipodi:nodetypes="csssc"
       inkscape:transform-center-x="19.617288"
       inkscape:transform-center-y="8.7675971" />
    <path
       style="fill:#000000;fill-opacity:1"
       id="path4440-0-1"
       sodipodi:type="arc"
       sodipodi:cx="220.00003"
       sodipodi:cy="348.07651"
       sodipodi:rx="36.112957"
       sodipodi:ry="35.355343"
       sodipodi:start="0.29883877"
       sodipodi:end="0.2814675"
       sodipodi:open="true"
       d="m 254.51243,358.4855 a 36.112957,35.355343 0 0 1 -44.99446,23.42425 36.112957,35.355343 0 0 1 -24.12138,-43.94837 36.112957,35.355343 0 0 1 44.78495,-23.80597 36.112957,35.355343 0 0 1 24.51036,43.7416" />
    <path
       style="fill:#ffffff;fill-opacity:1"
       id="path4442-7-8"
       sodipodi:type="arc"
       sodipodi:cx="240"
       sodipodi:cy="359.50507"
       sodipodi:rx="8.0812206"
       sodipodi:ry="8.586297"
       sodipodi:start="0.29883877"
       sodipodi:end="0.2814675"
       sodipodi:open="true"
       d="m 247.72305,362.03296 a 8.0812206,8.586297 0 0 1 -10.06869,5.68875 8.0812206,8.586297 0 0 1 -5.39779,-10.67317 8.0812206,8.586297 0 0 1 10.02181,-5.78146 8.0812206,8.586297 0 0 1 5.48484,10.62296" />
  </g>
</svg>
