<?xml version="1.0" encoding="UTF-8" standalone="no"?>
<svg
   xmlns:dc="http://purl.org/dc/elements/1.1/"
   xmlns:cc="http://creativecommons.org/ns#"
   xmlns:rdf="http://www.w3.org/1999/02/22-rdf-syntax-ns#"
   xmlns:svg="http://www.w3.org/2000/svg"
   xmlns="http://www.w3.org/2000/svg"
   version="1.1"
   id="svg5313"
   viewBox="0 0 661.26914 364.2134"
   height="102.78912mm"
   width="186.62485mm">
  <defs
     id="defs5315" />
  <metadata
     id="metadata5318">
    <rdf:RDF>
      <cc:Work
         rdf:about="">
        <dc:format>image/svg+xml</dc:format>
        <dc:type
           rdf:resource="http://purl.org/dc/dcmitype/StillImage" />
        <dc:title></dc:title>
      </cc:Work>
    </rdf:RDF>
  </metadata>
  <g
     transform="translate(-57.133429,-277.04202)"
     id="layer1">
    <path
       transform="matrix(0.99982523,0.01869516,-0.149407,0.98877578,0,0)"
       d="M 659.86487,490.13932 A 229.87589,168.5856 0 0 1 373.4541,601.83367 229.87589,168.5856 0 0 1 219.91022,392.27375 229.87589,168.5856 0 0 1 504.98736,278.75924 229.87589,168.5856 0 0 1 661.00731,487.33322"
       id="path4428"
       style="fill:#44aa00;fill-opacity:1" />
    <path
       d="m 282.48698,358.87481 a 63.134533,61.619305 0 0 1 -78.66162,40.82512 63.134533,61.619305 0 0 1 -42.17024,-76.59572 63.134533,61.619305 0 0 1 78.29535,-41.49041 63.134533,61.619305 0 0 1 42.85028,76.23536"
       id="path4432"
       style="fill:#44aa00;fill-opacity:1" />
    <path
       d="m 261.18143,362.73095 a 42.426407,40.406101 0 0 1 -52.86061,26.77057 42.426407,40.406101 0 0 1 -28.3384,-50.2267 42.426407,40.406101 0 0 1 52.61448,-27.20683 42.426407,40.406101 0 0 1 28.79539,49.9904"
       id="path4436"
       style="fill:#ffffff;fill-opacity:1" />
    <path
       d="m 222.27517,348.57874 a 8.586297,6.0609155 0 0 1 -10.69798,4.01559 8.586297,6.0609155 0 0 1 -5.73515,-7.53401 8.586297,6.0609155 0 0 1 10.64817,-4.08102 8.586297,6.0609155 0 0 1 5.82763,7.49856"
       id="path4438"
       style="fill:#ffffff;fill-opacity:1" />
    <circle
       r="0"
       cy="0"
       cx="0"
       id="oko-left"
       style="fill:#000000;fill-opacity:1" />
    <path
       d="m 244.52094,365.98981 a 8.0812206,8.586297 0 0 1 -10.06869,5.68875 8.0812206,8.586297 0 0 1 -5.39779,-10.67318 8.0812206,8.586297 0 0 1 10.0218,-5.78145 8.0812206,8.586297 0 0 1 5.48484,10.62296"
       id="path4442"
       style="fill:#ffffff;fill-opacity:1" />
    <path
       d="m 595.12919,363.92556 a 63.134533,61.619305 0 0 1 -78.66162,40.82513 63.134533,61.619305 0 0 1 -42.17024,-76.59573 63.134533,61.619305 0 0 1 78.29535,-41.49041 63.134533,61.619305 0 0 1 42.85028,76.23536"
       id="path4432-8"
       style="fill:#44aa00;fill-opacity:1" />
    <path
       d="m 573.82368,367.78173 a 42.426407,40.406101 0 0 1 -52.86062,26.77057 42.426407,40.406101 0 0 1 -28.3384,-50.2267 42.426407,40.406101 0 0 1 52.61448,-27.20683 42.426407,40.406101 0 0 1 28.79539,49.9904"
       id="path4436-5"
       style="fill:#ffffff;fill-opacity:1" />
    <path
       d="m 534.91741,353.62952 a 8.586297,6.0609155 0 0 1 -10.69798,4.01559 8.586297,6.0609155 0 0 1 -5.73515,-7.53401 8.586297,6.0609155 0 0 1 10.64817,-4.08102 8.586297,6.0609155 0 0 1 5.82764,7.49856"
       id="path4438-6"
       style="fill:#ffffff;fill-opacity:1" />
    <path
       d="m 528.92966,378.77518 a 8.0812206,8.586297 0 0 1 -10.06869,5.68875 8.0812206,8.586297 0 0 1 -5.39779,-10.67318 8.0812206,8.586297 0 0 1 10.0218,-5.78145 8.0812206,8.586297 0 0 1 5.48484,10.62296"
       id="path4442-7"
       style="fill:#ffffff;fill-opacity:1" />
    <path
       id="lapa-left"
       d="m 98.802855,646.17538 c -31.770866,11.55163 12.722815,-54.81562 5.558455,-82.93212 -7.164353,-28.1165 -69.157696,-24.8153 -37.449049,-36.61115 31.708639,-11.79583 135.340959,7.82163 142.780729,35.83567 7.43976,28.01405 -37.22702,57.19292 -68.87105,69.23208"
       style="color:#000000;clip-rule:nonzero;display:inline;overflow:visible;visibility:visible;opacity:1;isolation:auto;mix-blend-mode:normal;color-interpolation:sRGB;color-interpolation-filters:linearRGB;solid-color:#000000;solid-opacity:1;fill:#44aa00;fill-opacity:1;fill-rule:nonzero;stroke-width:0.9956888;stroke-linecap:butt;stroke-linejoin:miter;stroke-miterlimit:4;stroke-dasharray:none;stroke-dashoffset:0;stroke-opacity:1;color-rendering:auto;image-rendering:auto;shape-rendering:auto;text-rendering:auto;enable-background:accumulate">
      <animate
         repeatCount="5"
         fill="freeze"
         dur="0.15s"
         begin="0s"
         to="m 179.11196,625.96564 c -8.3857,32.74917 -38.08213,-41.42914 -65.33891,-51.37567 -27.256778,-9.94654 -59.504661,43.10199 -51.355701,10.26642 8.14896,-32.83556 82.810791,-107.33465 110.138351,-97.67331 27.32756,9.66134 26.22093,63.00272 18.30933,95.92221"
         from="m 175.11196,632.96564 c -8.3857,32.74917 -38.08213,-41.42914 -65.33891,-51.37567 -27.256778,-9.94654 -59.504661,43.10199 -51.355701,10.26642 8.14896,-32.83556 82.810791,-107.33465 110.138351,-97.67331 27.32756,9.66134 26.22093,63.00272 18.30933,95.92221"
         attributeType="XML"
         attributeName="d"
         id="" />
    </path>
    <path
       id="lapa-right"
       d="m 634.20382,619.44302 c 28.24097,19.28999 8.80317,-60.35248 27.48247,-88.21628 18.67928,-27.86379 81.49451,-10.39756 53.41577,-29.92957 -28.07874,-19.532 -143.15766,-22.37281 -162.08084,5.32134 -18.92317,27.69416 15.59615,68.38091 43.51053,88.15347"
       style="color:#000000;clip-rule:nonzero;display:inline;overflow:visible;visibility:visible;opacity:1;isolation:auto;mix-blend-mode:normal;color-interpolation:sRGB;color-interpolation-filters:linearRGB;solid-color:#000000;solid-opacity:1;fill:#44aa00;fill-opacity:1;fill-rule:nonzero;stroke-width:0.9956888;stroke-linecap:butt;stroke-linejoin:miter;stroke-miterlimit:4;stroke-dasharray:none;stroke-dashoffset:0;stroke-opacity:1;color-rendering:auto;image-rendering:auto;shape-rendering:auto;text-rendering:auto;enable-background:accumulate">
      <animate
         repeatCount="5"
         fill="freeze"
         dur="0.15s"
         begin="0s"
         to="m 584.73298,592.60866 c 9.85638,32.74917 44.76096,-41.42914 76.79803,-51.37567 32.03706,-9.94654 69.94057,43.10199 60.36245,10.26642 -9.57813,-32.83556 -97.33413,-107.33465 -129.45439,-97.67331 -32.12026,9.66134 -30.81955,63.00272 -21.52042,95.92221"
         from="m 579.73298,596.60866 c 9.85638,32.74917 44.76096,-41.42914 76.79803,-51.37567 32.03706,-9.94654 69.94057,43.10199 60.36245,10.26642 -9.57813,-32.83556 -97.33413,-107.33465 -129.45439,-97.67331 -32.12026,9.66134 -30.81955,63.00272 -21.52042,95.92221"
         attributeType="XML"
         attributeName="d"
         id="" />
    </path>
    <path
       id="brew-right"
       d="m 572.51434,308.46368 c -1.87568,-6.48436 -9.99289,-20.23549 -25.51886,-18.52814 -12.8744,1.4158 -13.19458,3.57903 -18.83152,4.70585 -10.21255,2.04151 4.5992,8.15777 25.3553,18.56901 19.44722,9.75472 29.34411,12.14588 19.05174,-4.54456"
       style="color:#000000;clip-rule:nonzero;display:inline;overflow:visible;visibility:visible;opacity:1;isolation:auto;mix-blend-mode:normal;color-interpolation:sRGB;color-interpolation-filters:linearRGB;solid-color:#000000;solid-opacity:1;fill:#008000;fill-opacity:1;fill-rule:nonzero;stroke-width:0.9956888;stroke-linecap:butt;stroke-linejoin:miter;stroke-miterlimit:4;stroke-dasharray:none;stroke-dashoffset:0;stroke-opacity:1;color-rendering:auto;image-rendering:auto;shape-rendering:auto;text-rendering:auto;enable-background:accumulate" />
    <path
       id="brew-left"
       d="m 175.04062,306.30851 c 1.87568,-6.48436 9.99289,-20.23549 25.51886,-18.52814 12.8744,1.4158 13.19458,3.57903 18.83152,4.70585 10.21255,2.04151 -4.5992,8.15777 -25.3553,18.56901 -19.44722,9.75472 -29.34411,12.14588 -19.05174,-4.54456"
       style="color:#000000;clip-rule:nonzero;display:inline;overflow:visible;visibility:visible;opacity:1;isolation:auto;mix-blend-mode:normal;color-interpolation:sRGB;color-interpolation-filters:linearRGB;solid-color:#000000;solid-opacity:1;fill:#008000;fill-opacity:1;fill-rule:nonzero;stroke-width:0.9956888;stroke-linecap:butt;stroke-linejoin:miter;stroke-miterlimit:4;stroke-dasharray:none;stroke-dashoffset:0;stroke-opacity:1;color-rendering:auto;image-rendering:auto;shape-rendering:auto;text-rendering:auto;enable-background:accumulate" />
    <rect
       transform="matrix(0.70279547,0.71139197,-0.78054492,0.6250997,0,0)"
       ry="6.3852081"
       y="81.200974"
       x="375.10736"
       height="12.770416"
       width="71.778748"
       id="rect6164"
       style="color:#000000;clip-rule:nonzero;display:inline;overflow:visible;visibility:visible;opacity:1;isolation:auto;mix-blend-mode:normal;color-interpolation:sRGB;color-interpolation-filters:linearRGB;solid-color:#000000;solid-opacity:1;fill:#241f1c;fill-opacity:1;fill-rule:nonzero;stroke-width:0.9956888;stroke-linecap:butt;stroke-linejoin:miter;stroke-miterlimit:4;stroke-dasharray:none;stroke-dashoffset:0;stroke-opacity:1;color-rendering:auto;image-rendering:auto;shape-rendering:auto;text-rendering:auto;enable-background:accumulate" />
    <rect
       transform="matrix(-0.70495428,0.70925275,0.78239422,0.6227835,0,0)"
       ry="6.557198"
       y="398.14218"
       x="99.803162"
       height="13.114396"
       width="73.660538"
       id="rect6164-5"
       style="color:#000000;clip-rule:nonzero;display:inline;overflow:visible;visibility:visible;opacity:1;isolation:auto;mix-blend-mode:normal;color-interpolation:sRGB;color-interpolation-filters:linearRGB;solid-color:#000000;solid-opacity:1;fill:#241f1c;fill-opacity:1;fill-rule:nonzero;stroke-width:0.9956888;stroke-linecap:butt;stroke-linejoin:miter;stroke-miterlimit:4;stroke-dasharray:none;stroke-dashoffset:0;stroke-opacity:1;color-rendering:auto;image-rendering:auto;shape-rendering:auto;text-rendering:auto;enable-background:accumulate" />
    <path
       d="m 534.80877,357.19733 a 8.586297,6.0609155 0 0 1 -10.69798,4.01559 8.586297,6.0609155 0 0 1 -5.73515,-7.53401 8.586297,6.0609155 0 0 1 10.64816,-4.08102 8.586297,6.0609155 0 0 1 5.82764,7.49856"
       id="path4438-4"
       style="fill:#ffffff;fill-opacity:1" />
    <path
       d="m 557.05453,374.6084 a 8.0812206,8.586297 0 0 1 -10.06868,5.68875 8.0812206,8.586297 0 0 1 -5.39779,-10.67318 8.0812206,8.586297 0 0 1 10.0218,-5.78145 8.0812206,8.586297 0 0 1 5.48484,10.62296"
       id="path4442-9"
       style="fill:#ffffff;fill-opacity:1" />
    <rect
       transform="matrix(0.70279547,0.71139197,-0.78054492,0.6250997,0,0)"
       ry="6.3852081"
       y="-136.25211"
       x="578.2984"
       height="12.770416"
       width="71.778748"
       id="rect6164-8"
       style="color:#000000;clip-rule:nonzero;display:inline;overflow:visible;visibility:visible;opacity:1;isolation:auto;mix-blend-mode:normal;color-interpolation:sRGB;color-interpolation-filters:linearRGB;solid-color:#000000;solid-opacity:1;fill:#241f1c;fill-opacity:1;fill-rule:nonzero;stroke-width:0.9956888;stroke-linecap:butt;stroke-linejoin:miter;stroke-miterlimit:4;stroke-dasharray:none;stroke-dashoffset:0;stroke-opacity:1;color-rendering:auto;image-rendering:auto;shape-rendering:auto;text-rendering:auto;enable-background:accumulate" />
    <rect
       transform="matrix(-0.70495428,0.70925275,0.78239422,0.6227835,0,0)"
       ry="6.557198"
       y="627.26959"
       x="-89.238335"
       height="13.114396"
       width="73.660538"
       id="rect6164-5-2"
       style="color:#000000;clip-rule:nonzero;display:inline;overflow:visible;visibility:visible;opacity:1;isolation:auto;mix-blend-mode:normal;color-interpolation:sRGB;color-interpolation-filters:linearRGB;solid-color:#000000;solid-opacity:1;fill:#241f1c;fill-opacity:1;fill-rule:nonzero;stroke-width:0.9956888;stroke-linecap:butt;stroke-linejoin:miter;stroke-miterlimit:4;stroke-dasharray:none;stroke-dashoffset:0;stroke-opacity:1;color-rendering:auto;image-rendering:auto;shape-rendering:auto;text-rendering:auto;enable-background:accumulate" />
    <path
       id="path4590"
       d="m 430.34858,571.84126 c -11.98843,8.33718 -26.90674,-22.22781 -131.0505,-3.08787 -54.13636,9.94938 -80.56066,-38.03786 -61.58394,-51.48438 18.97672,-13.44654 114.73893,-20.27276 167.93552,-5.36595 53.19657,14.90682 43.8123,45.93797 25.29762,59.51396"
       style="fill:#008000;fill-opacity:1" />
    <path
       id="jezyk"
       d="m 240.31325,522.92231 c 7.59638,-9.35356 25.62299,-4.28513 36.94153,-12.25999 15.87483,-11.18515 38.84429,97.50589 33.01198,98.64569 -24.56786,4.80126 -40.01899,-26.86749 -52.23547,-40.4767 -12.21647,-13.60925 -27.05026,-28.74403 -17.75797,-45.68646"
       style="color:#000000;clip-rule:nonzero;display:inline;overflow:visible;visibility:visible;opacity:1;isolation:auto;mix-blend-mode:normal;color-interpolation:sRGB;color-interpolation-filters:linearRGB;solid-color:#000000;solid-opacity:1;fill:#ff8080;fill-opacity:1;fill-rule:nonzero;stroke-width:0.9956888;stroke-linecap:butt;stroke-linejoin:miter;stroke-miterlimit:4;stroke-dasharray:none;stroke-dashoffset:0;stroke-opacity:1;color-rendering:auto;image-rendering:auto;shape-rendering:auto;text-rendering:auto;enable-background:accumulate" />
  </g>
</svg>
