<?xml version="1.0" encoding="UTF-8" standalone="no"?>
<svg
   xmlns:dc="http://purl.org/dc/elements/1.1/"
   xmlns:cc="http://creativecommons.org/ns#"
   xmlns:rdf="http://www.w3.org/1999/02/22-rdf-syntax-ns#"
   xmlns:svg="http://www.w3.org/2000/svg"
   xmlns="http://www.w3.org/2000/svg"
   version="1.1"
   id="svg5313"
   viewBox="0 0 661.26914 364.2134"
   height="102.78912mm"
   width="186.62485mm">
  <defs
     id="defs5315" />
  <metadata
     id="metadata5318">
    <rdf:RDF>
      <cc:Work
         rdf:about="">
        <dc:format>image/svg+xml</dc:format>
        <dc:type
           rdf:resource="http://purl.org/dc/dcmitype/StillImage" />
        <dc:title></dc:title>
      </cc:Work>
    </rdf:RDF>
  </metadata>
  <g
     transform="translate(-57.133429,-277.04202)"
     id="layer1">
    <path
       transform="matrix(0.99982523,0.01869516,-0.149407,0.98877578,0,0)"
       d="M 659.86487,490.13932 A 229.87589,168.5856 0 0 1 373.4541,601.83367 229.87589,168.5856 0 0 1 219.91022,392.27375 229.87589,168.5856 0 0 1 504.98736,278.75924 229.87589,168.5856 0 0 1 661.00731,487.33322"
       id="path4428"
       style="fill:#44aa00;fill-opacity:1" />
    <path
       d="m 282.48698,358.87481 a 63.134533,61.619305 0 0 1 -78.66162,40.82512 63.134533,61.619305 0 0 1 -42.17024,-76.59572 63.134533,61.619305 0 0 1 78.29535,-41.49041 63.134533,61.619305 0 0 1 42.85028,76.23536"
       id="path4432"
       style="fill:#44aa00;fill-opacity:1" />
    <path
       d="m 261.18143,362.73095 a 42.426407,40.406101 0 0 1 -52.86061,26.77057 42.426407,40.406101 0 0 1 -28.3384,-50.2267 42.426407,40.406101 0 0 1 52.61448,-27.20683 42.426407,40.406101 0 0 1 28.79539,49.9904"
       id="path4436"
       style="fill:#ffffff;fill-opacity:1" />
    <path
       d="m 222.27517,348.57874 a 8.586297,6.0609155 0 0 1 -10.69798,4.01559 8.586297,6.0609155 0 0 1 -5.73515,-7.53401 8.586297,6.0609155 0 0 1 10.64817,-4.08102 8.586297,6.0609155 0 0 1 5.82763,7.49856"
       id="path4438"
       style="fill:#ffffff;fill-opacity:1" />
    <circle
       r="0"
       cy="0"
       cx="0"
       id="oko-left"
       style="fill:#000000;fill-opacity:1" />
    <path
       d="m 244.52094,365.98981 a 8.0812206,8.586297 0 0 1 -10.06869,5.68875 8.0812206,8.586297 0 0 1 -5.39779,-10.67318 8.0812206,8.586297 0 0 1 10.0218,-5.78145 8.0812206,8.586297 0 0 1 5.48484,10.62296"
       id="path4442"
       style="fill:#ffffff;fill-opacity:1" />
    <path
       d="m 595.12919,363.92556 a 63.134533,61.619305 0 0 1 -78.66162,40.82513 63.134533,61.619305 0 0 1 -42.17024,-76.59573 63.134533,61.619305 0 0 1 78.29535,-41.49041 63.134533,61.619305 0 0 1 42.85028,76.23536"
       id="path4432-8"
       style="fill:#44aa00;fill-opacity:1" />
    <path
       d="m 573.82368,367.78173 a 42.426407,40.406101 0 0 1 -52.86062,26.77057 42.426407,40.406101 0 0 1 -28.3384,-50.2267 42.426407,40.406101 0 0 1 52.61448,-27.20683 42.426407,40.406101 0 0 1 28.79539,49.9904"
       id="path4436-5"
       style="fill:#ffffff;fill-opacity:1" />
    <path
       d="m 534.91741,353.62952 a 8.586297,6.0609155 0 0 1 -10.69798,4.01559 8.586297,6.0609155 0 0 1 -5.73515,-7.53401 8.586297,6.0609155 0 0 1 10.64817,-4.08102 8.586297,6.0609155 0 0 1 5.82764,7.49856"
       id="path4438-6"
       style="fill:#ffffff;fill-opacity:1" />
    <path
       d="m 554.9653,370.82959 a 29.684385,28.212486 0 0 1 -36.98486,18.69184 29.684385,28.212486 0 0 1 -19.82746,-35.06946 29.684385,28.212486 0 0 1 36.81264,-18.99645 29.684385,28.212486 0 0 1 20.14721,34.90447"
       id="path4440-0"
       style="fill:#000000;fill-opacity:1" />
    <path
       d="m 528.92966,378.77518 a 8.0812206,8.586297 0 0 1 -10.06869,5.68875 8.0812206,8.586297 0 0 1 -5.39779,-10.67318 8.0812206,8.586297 0 0 1 10.0218,-5.78145 8.0812206,8.586297 0 0 1 5.48484,10.62296"
       id="path4442-7"
       style="fill:#ffffff;fill-opacity:1" />
    <path
       id="buzia"
       d="m 388.19371,546.81717 c -28.63089,-4.28246 -70.82107,-9.36861 -113.985,-6.00948 -43.16393,3.35913 -76.09865,17.78589 -60.77626,25.15618 15.32236,7.37028 45.93804,-1.21818 88.31444,-5.59546 48.28141,-4.98724 136.62745,4.82324 121.68115,-2.57566"
       style="fill:#008000;fill-opacity:1" />
    <path
       id="lapa-left"
       d="m 175.11196,632.96564 c -8.3857,32.74917 -38.08213,-41.42914 -65.33891,-51.37567 -27.256778,-9.94654 -59.504661,43.10199 -51.355701,10.26642 8.14896,-32.83556 82.810791,-107.33465 110.138351,-97.67331 27.32756,9.66134 26.22093,63.00272 18.30933,95.92221"
       style="color:#000000;clip-rule:nonzero;display:inline;overflow:visible;visibility:visible;opacity:1;isolation:auto;mix-blend-mode:normal;color-interpolation:sRGB;color-interpolation-filters:linearRGB;solid-color:#000000;solid-opacity:1;fill:#44aa00;fill-opacity:1;fill-rule:nonzero;stroke-width:0.9956888;stroke-linecap:butt;stroke-linejoin:miter;stroke-miterlimit:4;stroke-dasharray:none;stroke-dashoffset:0;stroke-opacity:1;color-rendering:auto;image-rendering:auto;shape-rendering:auto;text-rendering:auto;enable-background:accumulate">
      <animate
         repeatCount="5"
         fill="freeze"
         dur="0.15s"
         begin="0s"
         to="m 179.11196,625.96564 c -8.3857,32.74917 -38.08213,-41.42914 -65.33891,-51.37567 -27.256778,-9.94654 -59.504661,43.10199 -51.355701,10.26642 8.14896,-32.83556 82.810791,-107.33465 110.138351,-97.67331 27.32756,9.66134 26.22093,63.00272 18.30933,95.92221"
         from="m 175.11196,632.96564 c -8.3857,32.74917 -38.08213,-41.42914 -65.33891,-51.37567 -27.256778,-9.94654 -59.504661,43.10199 -51.355701,10.26642 8.14896,-32.83556 82.810791,-107.33465 110.138351,-97.67331 27.32756,9.66134 26.22093,63.00272 18.30933,95.92221"
         attributeType="XML"
         attributeName="d"
         id="" />
    </path>
    <path
       id="lapa-right"
       d="m 579.73298,596.60866 c 9.85638,32.74917 44.76096,-41.42914 76.79803,-51.37567 32.03706,-9.94654 69.94057,43.10199 60.36245,10.26642 -9.57813,-32.83556 -97.33413,-107.33465 -129.45439,-97.67331 -32.12026,9.66134 -30.81955,63.00272 -21.52042,95.92221"
       style="color:#000000;clip-rule:nonzero;display:inline;overflow:visible;visibility:visible;opacity:1;isolation:auto;mix-blend-mode:normal;color-interpolation:sRGB;color-interpolation-filters:linearRGB;solid-color:#000000;solid-opacity:1;fill:#44aa00;fill-opacity:1;fill-rule:nonzero;stroke-width:0.9956888;stroke-linecap:butt;stroke-linejoin:miter;stroke-miterlimit:4;stroke-dasharray:none;stroke-dashoffset:0;stroke-opacity:1;color-rendering:auto;image-rendering:auto;shape-rendering:auto;text-rendering:auto;enable-background:accumulate">
      <animate
         repeatCount="5"
         fill="freeze"
         dur="0.15s"
         begin="0s"
         to="m 584.73298,592.60866 c 9.85638,32.74917 44.76096,-41.42914 76.79803,-51.37567 32.03706,-9.94654 69.94057,43.10199 60.36245,10.26642 -9.57813,-32.83556 -97.33413,-107.33465 -129.45439,-97.67331 -32.12026,9.66134 -30.81955,63.00272 -21.52042,95.92221"
         from="m 579.73298,596.60866 c 9.85638,32.74917 44.76096,-41.42914 76.79803,-51.37567 32.03706,-9.94654 69.94057,43.10199 60.36245,10.26642 -9.57813,-32.83556 -97.33413,-107.33465 -129.45439,-97.67331 -32.12026,9.66134 -30.81955,63.00272 -21.52042,95.92221"
         attributeType="XML"
         attributeName="d"
         id="" />
    </path>
    <path
       id="brew-right"
       d="m 581.08577,322.7494 c -1.87568,-6.48436 -9.99289,-20.23549 -25.51886,-18.52814 -12.8744,1.4158 -13.19458,3.57903 -18.83152,4.70585 -10.21255,2.04151 4.5992,8.15777 25.3553,18.56901 19.44722,9.75472 29.34411,12.14588 19.05174,-4.54456"
       style="color:#000000;clip-rule:nonzero;display:inline;overflow:visible;visibility:visible;opacity:1;isolation:auto;mix-blend-mode:normal;color-interpolation:sRGB;color-interpolation-filters:linearRGB;solid-color:#000000;solid-opacity:1;fill:#008000;fill-opacity:1;fill-rule:nonzero;stroke-width:0.9956888;stroke-linecap:butt;stroke-linejoin:miter;stroke-miterlimit:4;stroke-dasharray:none;stroke-dashoffset:0;stroke-opacity:1;color-rendering:auto;image-rendering:auto;shape-rendering:auto;text-rendering:auto;enable-background:accumulate" />
    <path
       id="brew-left"
       d="m 172.97826,324.87994 c 1.87568,-6.48436 9.99289,-20.23549 25.51886,-18.52814 12.8744,1.4158 13.19458,3.57903 18.83152,4.70585 10.21255,2.04151 -4.5992,8.15777 -25.3553,18.56901 -19.44722,9.75472 -29.34411,12.14588 -19.05174,-4.54456"
       style="color:#000000;clip-rule:nonzero;display:inline;overflow:visible;visibility:visible;opacity:1;isolation:auto;mix-blend-mode:normal;color-interpolation:sRGB;color-interpolation-filters:linearRGB;solid-color:#000000;solid-opacity:1;fill:#008000;fill-opacity:1;fill-rule:nonzero;stroke-width:0.9956888;stroke-linecap:butt;stroke-linejoin:miter;stroke-miterlimit:4;stroke-dasharray:none;stroke-dashoffset:0;stroke-opacity:1;color-rendering:auto;image-rendering:auto;shape-rendering:auto;text-rendering:auto;enable-background:accumulate" />
    <path
       d="m 254.95563,366.54936 a 26.112955,23.926771 0 0 1 -32.53508,15.8524 26.112955,23.926771 0 0 1 -17.44196,-29.74212 26.112955,23.926771 0 0 1 32.3836,-16.11072 26.112955,23.926771 0 0 1 17.72322,29.60218"
       id="path4440-0-1"
       style="fill:#000000;fill-opacity:1" />
    <path
       d="m 247.72305,362.03296 a 8.0812206,8.586297 0 0 1 -10.06869,5.68875 8.0812206,8.586297 0 0 1 -5.39779,-10.67317 8.0812206,8.586297 0 0 1 10.02181,-5.78146 8.0812206,8.586297 0 0 1 5.48484,10.62296"
       id="path4442-7-8"
       style="fill:#ffffff;fill-opacity:1" />
    <path
       id="path4587"
       d="m 236.2304,435.25703 c -1.40672,-16.86369 -7.51492,-61.14783 -16.9054,-57.86883 -9.39047,3.27901 -19.44875,55.36684 -17.20481,69.77965 2.24391,14.4128 11.66451,23.51415 21.07447,20.36033 9.40995,-3.15384 15.26877,-17.37624 13.10655,-31.81641"
       style="fill:#00ffff;fill-opacity:1" />
    <path
       id="path4587-0"
       d="m 574.73812,443.58496 c -1.57923,-18.4532 -8.4365,-66.91142 -18.97857,-63.32335 -10.54205,3.58808 -21.83381,60.58553 -19.31469,76.35685 2.51909,15.7713 13.09497,25.73051 23.6589,22.27943 10.56393,-3.45112 17.14123,-19.01407 14.71385,-34.81532"
       style="fill:#00ffff;fill-opacity:1" />
  </g>
</svg>
